<svg width="20" height="20" viewBox="0 0 20 20" fill="none" xmlns="http://www.w3.org/2000/svg">
<path d="M10 14.1667C10.2361 14.1667 10.4342 14.0867 10.5942 13.9267C10.7542 13.7667 10.8339 13.5689 10.8333 13.3333C10.8328 13.0978 10.7528 12.9 10.5933 12.74C10.4339 12.58 10.2361 12.5 10 12.5C9.76389 12.5 9.56611 12.58 9.40667 12.74C9.24722 12.9 9.16722 13.0978 9.16667 13.3333C9.16611 13.5689 9.24611 13.7669 9.40667 13.9275C9.56722 14.0881 9.765 14.1678 10 14.1667ZM9.16667 10.8333H10.8333V5.83333H9.16667V10.8333ZM10 18.3333C8.84722 18.3333 7.76389 18.1144 6.75 17.6767C5.73611 17.2389 4.85417 16.6453 4.10417 15.8958C3.35417 15.1464 2.76056 14.2644 2.32333 13.25C1.88611 12.2356 1.66722 11.1522 1.66667 10C1.66611 8.84778 1.885 7.76445 2.32333 6.75C2.76167 5.73556 3.35528 4.85361 4.10417 4.10417C4.85306 3.35472 5.735 2.76111 6.75 2.32333C7.765 1.88556 8.84833 1.66667 10 1.66667C11.1517 1.66667 12.235 1.88556 13.25 2.32333C14.265 2.76111 15.1469 3.35472 15.8958 4.10417C16.6447 4.85361 17.2386 5.73556 17.6775 6.75C18.1164 7.76445 18.335 8.84778 18.3333 10C18.3317 11.1522 18.1128 12.2356 17.6767 13.25C17.2406 14.2644 16.6469 15.1464 15.8958 15.8958C15.1447 16.6453 14.2628 17.2392 13.25 17.6775C12.2372 18.1158 11.1539 18.3344 10 18.3333ZM10 16.6667C11.8611 16.6667 13.4375 16.0208 14.7292 14.7292C16.0208 13.4375 16.6667 11.8611 16.6667 10C16.6667 8.13889 16.0208 6.5625 14.7292 5.27083C13.4375 3.97917 11.8611 3.33333 10 3.33333C8.13889 3.33333 6.5625 3.97917 5.27083 5.27083C3.97917 6.5625 3.33333 8.13889 3.33333 10C3.33333 11.8611 3.97917 13.4375 5.27083 14.7292C6.5625 16.0208 8.13889 16.6667 10 16.6667Z" fill="red"/>
</svg>
