<svg width="20" height="20" viewBox="0 0 20 20" fill="none" xmlns="http://www.w3.org/2000/svg">
<path d="M9.95833 15C10.25 15 10.4967 14.8992 10.6983 14.6975C10.9 14.4958 11.0006 14.2494 11 13.9583C10.9994 13.6672 10.8989 13.4206 10.6983 13.2183C10.4978 13.0161 10.2511 12.9156 9.95833 12.9167C9.66556 12.9178 9.41917 13.0186 9.21917 13.2192C9.01917 13.4197 8.91833 13.6661 8.91667 13.9583C8.915 14.2506 9.01583 14.4972 9.21917 14.6983C9.4225 14.8994 9.66889 15 9.95833 15ZM9.20833 11.7917H10.75C10.75 11.3333 10.8022 10.9722 10.9067 10.7083C11.0111 10.4444 11.3061 10.0833 11.7917 9.625C12.1528 9.26389 12.4375 8.92 12.6458 8.59333C12.8542 8.26667 12.9583 7.87444 12.9583 7.41667C12.9583 6.63889 12.6736 6.04167 12.1042 5.625C11.5347 5.20833 10.8611 5 10.0833 5C9.29167 5 8.64944 5.20833 8.15667 5.625C7.66389 6.04167 7.32 6.54167 7.125 7.125L8.5 7.66667C8.56944 7.41667 8.72583 7.14583 8.96917 6.85417C9.2125 6.5625 9.58389 6.41667 10.0833 6.41667C10.5278 6.41667 10.8611 6.53833 11.0833 6.78167C11.3056 7.025 11.4167 7.29222 11.4167 7.58333C11.4167 7.86111 11.3333 8.12167 11.1667 8.365C11 8.60833 10.7917 8.83389 10.5417 9.04167C9.93056 9.58333 9.55556 9.99306 9.41667 10.2708C9.27778 10.5486 9.20833 11.0556 9.20833 11.7917ZM10 18.3333C8.84722 18.3333 7.76389 18.1147 6.75 17.6775C5.73611 17.2403 4.85417 16.6464 4.10417 15.8958C3.35417 15.1453 2.76056 14.2633 2.32333 13.25C1.88611 12.2367 1.66722 11.1533 1.66667 10C1.66611 8.84667 1.885 7.76333 2.32333 6.75C2.76167 5.73667 3.35528 4.85472 4.10417 4.10417C4.85306 3.35361 5.735 2.76 6.75 2.32333C7.765 1.88667 8.84833 1.66778 10 1.66667C11.1517 1.66556 12.235 1.88444 13.25 2.32333C14.265 2.76222 15.1469 3.35583 15.8958 4.10417C16.6447 4.8525 17.2386 5.73445 17.6775 6.75C18.1164 7.76556 18.335 8.84889 18.3333 10C18.3317 11.1511 18.1128 12.2344 17.6767 13.25C17.2406 14.2656 16.6469 15.1475 15.8958 15.8958C15.1447 16.6442 14.2628 17.2381 13.25 17.6775C12.2372 18.1169 11.1539 18.3356 10 18.3333ZM10 16.6667C11.8611 16.6667 13.4375 16.0208 14.7292 14.7292C16.0208 13.4375 16.6667 11.8611 16.6667 10C16.6667 8.13889 16.0208 6.5625 14.7292 5.27083C13.4375 3.97917 11.8611 3.33333 10 3.33333C8.13889 3.33333 6.5625 3.97917 5.27083 5.27083C3.97917 6.5625 3.33333 8.13889 3.33333 10C3.33333 11.8611 3.97917 13.4375 5.27083 14.7292C6.5625 16.0208 8.13889 16.6667 10 16.6667Z" fill="black"/>
</svg>
